<svg width="30" height="30" viewBox="0 0 30 30" fill="none" xmlns="http://www.w3.org/2000/svg">
<g clip-path="url(#clip0_157_19)">
<path d="M17.3048 23.3038V2L1.91211 21.0253L17.3048 23.3038Z" fill="#1570EF"/>
<path d="M26.7688 25.5823L18.4453 6.78482L18.7874 23.5316L26.7688 25.5823Z" fill="#1570EF"/>
<path d="M17.3049 24.443L1 22.6203L3.73649 29L30.1892 28.4304L26.7686 26.8354L18.7872 24.7848L17.3049 24.443Z" fill="#1570EF"/>
<path d="M17.3048 23.3038V2L1.91211 21.0253L17.3048 23.3038Z" stroke="white"/>
<path d="M26.7688 25.5823L18.4453 6.78482L18.7874 23.5316L26.7688 25.5823Z" stroke="white"/>
<path d="M17.3049 24.443L1 22.6203L3.73649 29L30.1892 28.4304L26.7686 26.8354L18.7872 24.7848L17.3049 24.443Z" stroke="white"/>
</g>
<defs>
<clipPath id="clip0_157_19">
<rect width="30" height="30" fill="white"/>
</clipPath>
</defs>
</svg>
